<svg width="52" height="62" viewBox="0 0 52 62" fill="none" xmlns="http://www.w3.org/2000/svg">
<path d="M43.3059 59.5033C39.9616 62.767 36.2717 62.2582 32.7546 60.7194C29.0153 59.1496 25.5969 59.0503 21.6479 60.7194C16.7301 62.8538 14.12 62.2334 11.1583 59.5033C-5.56346 42.1921 -3.09531 15.822 15.9095 14.8293C20.5187 15.0775 23.7458 17.3918 26.4608 17.5842C30.4962 16.759 34.3589 14.395 38.6782 14.7052C43.8674 15.1271 47.7486 17.1871 50.3402 20.8913C39.6654 27.3442 42.1953 41.491 52 45.462C50.0378 50.6429 47.5203 55.7618 43.2998 59.5467L43.3059 59.5033ZM26.0906 14.6431C25.5908 6.94929 31.792 0.620472 38.925 0C39.9061 8.87275 30.9035 15.5118 26.0906 14.6431Z" fill="black"/>
</svg>
