<svg width="59" height="62" viewBox="0 0 59 62" fill="none" xmlns="http://www.w3.org/2000/svg">
<path fill-rule="evenodd" clip-rule="evenodd" d="M18.9114 11.4736C19.1825 7.30072 22.653 4 26.8944 4H31.1049C35.3463 4 38.8168 7.30072 39.0879 11.4736H18.9114ZM14.8944 15.4736V22H18.8944V15.4736H39.1049V22H43.1049V15.4736H51.1843L54.9244 51.3783C55.2932 54.9188 52.5163 58 48.9567 58H10.3277C6.71868 58 3.92636 54.8369 4.374 51.2557L8.84676 15.4736H14.8944ZM14.9057 11.4736C15.1812 5.09044 20.4433 0 26.8944 0H31.1049C37.5559 0 42.8181 5.09043 43.0936 11.4736H54.7893L58.9029 50.9639C59.5175 56.8646 54.8894 62 48.9567 62H10.3277C4.31269 62 -0.341181 56.7281 0.404885 50.7596L5.31563 11.4736H14.9057Z" fill="black"/>
</svg>
