<svg width="101" height="48" viewBox="0 0 101 48" fill="none" xmlns="http://www.w3.org/2000/svg">
<path fill-rule="evenodd" clip-rule="evenodd" d="M27.2575 2.90203C30.2115 0.942415 33.8267 0 37.3802 0H50.1085C53.6973 0 57.3002 0.959784 60.4358 2.89606L60.4506 2.90529L71.453 9.83264L71.4715 9.84446C74.2494 11.6364 77.4126 12.8237 80.7613 13.2191C80.7805 13.2213 80.7997 13.2239 80.8188 13.2267L88.1537 14.3091L88.1594 14.3099C93.2654 15.0785 97.3298 18.6775 98.8387 23.7245L98.8483 23.7577L100.79 30.685L100.794 30.7002C101.749 34.2117 99.2248 38.266 94.9107 37.9873H89.9047C89.1753 43.636 84.3473 48 78.5 48C72.6527 48 67.8247 43.636 67.0953 37.9873H30.9047C30.1753 43.636 25.3473 48 19.5 48C13.6527 48 8.82473 43.636 8.0953 37.9873H5.45173C2.39905 37.9873 0 35.57 0 32.5237V17.1536C0 15.7234 0.610823 14.3904 1.49417 13.4234C2.3725 12.4619 3.67536 11.7001 5.20512 11.69L12.6489 11.4881L27.2575 2.90203ZM89.7247 33.9873C88.9317 30.4294 86.4904 27.4929 83.2437 26.0209C81.7511 25.3005 80.0944 24.8952 78.3695 24.8952C72.989 24.8952 68.2713 28.8392 67.1307 33.9873H30.9289C29.7883 28.8392 25.0707 24.8952 19.6901 24.8952C18.2561 24.8952 16.8692 25.1753 15.5845 25.6838C11.9281 27.0077 9.13437 30.1328 8.27532 33.9873H5.45173C4.62121 33.9873 4 33.3739 4 32.5237V17.1536C4 16.8519 4.14424 16.4531 4.44743 16.1212C4.74973 15.7903 5.05323 15.6899 5.236 15.6899C5.25407 15.6899 5.27215 15.6897 5.29022 15.6892L13.2723 15.4727C13.6102 15.4635 13.9402 15.3689 14.2315 15.1977L29.3328 6.322C29.3663 6.30232 29.3992 6.28168 29.4315 6.26009C31.6459 4.77871 34.4819 4 37.3802 4H50.1085C52.9888 4 55.8551 4.77054 58.3269 6.29497L58.3342 6.29945L69.3032 13.2058L69.3124 13.2117C72.5649 15.3079 76.2915 16.7144 80.263 17.188L87.5641 18.2654L87.5665 18.2658C91.0836 18.7961 93.9184 21.2518 95.0016 24.8545L96.9342 31.7493L96.9359 31.7559C97.0906 32.3334 96.956 32.9352 96.6262 33.368C96.3206 33.769 95.8351 34.0473 95.1349 33.9933C95.0836 33.9893 95.0323 33.9873 94.9809 33.9873H89.7247ZM81.5617 29.6514C80.6268 29.2328 79.5906 29 78.5 29C74.3579 29 71 32.3579 71 36.5C71 40.6421 74.3579 44 78.5 44C82.5713 44 85.8849 40.756 85.9971 36.7118C85.9198 36.5129 85.8734 36.2984 85.8636 36.0739C85.7433 33.2961 83.9738 30.8394 81.5617 29.6514ZM12.196 36.0739C12.1841 36.3474 12.1177 36.6062 12.0076 36.8398C12.1852 40.8242 15.4717 44 19.5 44C23.6421 44 27 40.6421 27 36.5C27 32.3579 23.6421 29 19.5 29C18.6202 29 17.7758 29.1515 16.9914 29.4298C14.3305 30.5114 12.3244 33.1099 12.196 36.0739Z" fill="black"/>
</svg>
