<svg width="66" height="66" viewBox="0 0 66 66" fill="none" xmlns="http://www.w3.org/2000/svg">
<path fill-rule="evenodd" clip-rule="evenodd" d="M6 32.9998C6 18.0994 18.0994 6 32.9998 6C39.6348 6 45.5345 8.35112 50.2883 12.2136C51.5742 13.2584 53.4636 13.0629 54.5084 11.777C55.5532 10.4911 55.3578 8.60167 54.0718 7.55687C48.3339 2.89476 41.1189 0 32.9998 0C14.7857 0 0 14.7857 0 32.9998C0 51.214 14.7857 65.9997 32.9998 65.9997C40.903 65.9997 48.314 63.3017 54.1147 58.4074C55.381 57.3389 55.5414 55.4462 54.4729 54.1799C53.4045 52.9135 51.5118 52.7531 50.2455 53.8216C45.5544 57.7797 39.5228 59.9997 32.9998 59.9997C18.0994 59.9997 6 47.9003 6 32.9998ZM63.4817 20.3886C62.8544 18.8551 61.1027 18.1206 59.5692 18.7479C58.0357 19.3752 57.3011 21.1269 57.9284 22.6604C59.2679 25.9348 60.0001 29.3206 60.0001 32.9999C60.0001 36.6792 59.2679 40.065 57.9284 43.3393C57.3011 44.8728 58.0357 46.6245 59.5692 47.2519C61.1027 47.8792 62.8544 47.1446 63.4817 45.6111C65.093 41.6724 66.0001 37.5172 66.0001 32.9999C66.0001 28.4825 65.093 24.3274 63.4817 20.3886Z" fill="black"/>
</svg>
