<svg width="103" height="103" viewBox="0 0 103 103" fill="none" xmlns="http://www.w3.org/2000/svg">
<path fill-rule="evenodd" clip-rule="evenodd" d="M51.4992 0C49.7527 0 48.3369 1.4158 48.3369 3.16227V48.3369H3.16228C1.4158 48.3369 0 49.7527 0 51.4992C0 53.2457 1.4158 54.6615 3.16227 54.6615H48.3369V99.8377C48.3369 101.584 49.7527 103 51.4992 103C53.2457 103 54.6615 101.584 54.6615 99.8377V54.6615H99.8377C101.584 54.6615 103 53.2457 103 51.4992C103 49.7527 101.584 48.3369 99.8377 48.3369H54.6615V3.16228C54.6615 1.4158 53.2457 0 51.4992 0Z" fill="#E0E0E0"/>
</svg>
