<svg width="46" height="52" viewBox="0 0 46 52" fill="none" xmlns="http://www.w3.org/2000/svg">
<path d="M44.8036 2.91853C44.6209 2.67895 44.3523 2.52649 44.0514 2.52649L37.1209 2.35225L37.3143 1.14346C37.3573 0.860314 37.2821 0.566283 37.0994 0.348482C36.9168 0.130681 36.6481 0 36.358 0H8.63598C8.35661 0 8.08798 0.130681 7.89457 0.348482C7.71191 0.566283 7.62595 0.860314 7.67967 1.14346L7.87308 2.35225L0.942571 2.52649C0.641711 2.53738 0.362342 2.67895 0.190422 2.91853C0.00775752 3.15812 -0.0459674 3.47393 0.0399925 3.76796L1.94185 10.7485C1.99558 10.9445 2.11377 11.1296 2.27495 11.2603L10.4411 17.8161C11.1288 20.5386 12.3967 22.978 14.0837 24.8184C15.3623 26.2015 16.8344 27.2142 18.4676 27.835V36.841H15.9426C15.4053 36.841 14.9755 37.2766 14.9755 37.8212V43.4404H11.3652C10.828 43.4404 10.3982 43.876 10.3982 44.4205V51.0199C10.3982 51.5644 10.828 52 11.3652 52H33.6503C34.1875 52 34.6173 51.5644 34.6173 51.0199V44.4205C34.6173 43.876 34.1875 43.4404 33.6503 43.4404H30.04V37.8212C30.04 37.2766 29.6102 36.841 29.0729 36.841H26.5479V27.835C28.1811 27.2142 29.6532 26.1906 30.9318 24.8075C32.6188 22.978 33.8867 20.5386 34.5744 17.8161L42.7405 11.2603C42.9017 11.1296 43.0199 10.9554 43.0736 10.7485L44.9755 3.76796C45.04 3.47393 44.9862 3.15812 44.8036 2.91853ZM32.6832 50.0289H12.3215V45.3897H32.6832V50.0289ZM3.72552 9.90995L2.23197 4.44314L8.19543 4.29068L9.89314 14.854L3.72552 9.90995ZM28.0951 43.4295H16.8989V38.7904H19.4239H25.5701H28.0951V43.4295ZM24.603 36.8302H20.391V28.3686C20.5522 28.4013 20.7241 28.423 20.896 28.4448C20.9067 28.4448 20.9067 28.4448 20.9175 28.4448C21.0787 28.4666 21.2506 28.4884 21.4118 28.4993C21.4225 28.4993 21.444 28.4993 21.4547 28.4993C21.6159 28.5102 21.7878 28.521 21.949 28.5319C21.9598 28.5319 21.9705 28.5319 21.9812 28.5319C22.1532 28.5428 22.3251 28.5428 22.497 28.5428C23.2169 28.5428 23.9153 28.4775 24.603 28.3577V36.8302ZM25.2262 26.2015C24.5815 26.3975 23.9153 26.5173 23.2384 26.5717C23.2169 26.5717 23.2062 26.5717 23.1847 26.5717C23.0987 26.5826 23.002 26.5826 22.9161 26.5826C22.8838 26.5826 22.8623 26.5826 22.8301 26.5826C22.7334 26.5826 22.6259 26.5826 22.5292 26.5935C22.5185 26.5935 22.5077 26.5935 22.5077 26.5935C22.497 26.5935 22.4863 26.5935 22.4863 26.5935C22.3896 26.5935 22.2821 26.5935 22.1854 26.5935C22.1424 26.5935 22.1102 26.5935 22.0779 26.5935C22.0027 26.5935 21.9383 26.5826 21.863 26.5826C21.8201 26.5826 21.7771 26.5826 21.7449 26.5717C21.6696 26.5608 21.5944 26.5608 21.53 26.5499C21.4977 26.5499 21.4547 26.5391 21.4225 26.5391C21.3258 26.5282 21.2291 26.5173 21.1324 26.5064C21.0787 26.4955 21.0249 26.4846 20.9712 26.4846C20.9282 26.4737 20.8853 26.4737 20.8423 26.4628C20.7778 26.4519 20.7133 26.441 20.6489 26.4302C20.6274 26.4302 20.5951 26.4193 20.5737 26.4193C16.05 25.4718 13.2241 21.2792 12.2248 16.8796C12.2033 16.7707 12.1818 16.6727 12.1603 16.5638C12.1496 16.4984 12.1281 16.4222 12.1174 16.3569C12.0851 16.1826 12.0529 16.0084 12.0206 15.8341L11.9884 15.6381L9.77495 1.96021H35.2191L35.0364 3.11456C35.0364 3.12545 35.0364 3.13634 35.0364 3.13634L33.1238 15.0718L33.0056 15.8015C32.2857 20.3208 29.6424 24.862 25.2262 26.2015ZM41.2792 9.90995L35.1224 14.854L36.8201 4.29068L42.7835 4.44314L41.2792 9.90995Z" fill="#8BC53F"/>
</svg>
