<svg width="46" height="52" viewBox="0 0 46 52" fill="none" xmlns="http://www.w3.org/2000/svg">
<path d="M44.8075 2.91853C44.6248 2.67895 44.3562 2.52649 44.0553 2.52649L37.1248 2.35225L37.3182 1.14346C37.3612 0.860314 37.286 0.566283 37.1033 0.348482C36.9207 0.130681 36.652 0 36.3619 0H8.63988C8.36051 0 8.09189 0.130681 7.89848 0.348482C7.71582 0.566283 7.62986 0.860314 7.68358 1.14346L7.87699 2.35225L0.946477 2.52649C0.645618 2.53738 0.366248 2.67895 0.194328 2.91853C0.0116638 3.15812 -0.0420611 3.47393 0.0438987 3.76796L1.94576 10.7485C1.99949 10.9445 2.11768 11.1296 2.27885 11.2603L10.445 17.8161C11.1327 20.5386 12.4006 22.978 14.0876 24.8184C15.3662 26.2015 16.8383 27.2142 18.4715 27.835V36.841H15.9465C15.4092 36.841 14.9794 37.2766 14.9794 37.8212V43.4404H11.3691C10.8319 43.4404 10.4021 43.876 10.4021 44.4205V51.0199C10.4021 51.5644 10.8319 52 11.3691 52H33.6542C34.1914 52 34.6212 51.5644 34.6212 51.0199V44.4205C34.6212 43.876 34.1914 43.4404 33.6542 43.4404H30.0439V37.8212C30.0439 37.2766 29.6141 36.841 29.0768 36.841H26.5518V27.835C28.185 27.2142 29.6571 26.1906 30.9357 24.8075C32.6227 22.978 33.8906 20.5386 34.5783 17.8161L42.7444 11.2603C42.9056 11.1296 43.0238 10.9554 43.0775 10.7485L44.9794 3.76796C45.0439 3.47393 44.9902 3.15812 44.8075 2.91853ZM32.6872 50.0289H12.3254V45.3897H32.6872V50.0289ZM3.72943 9.90995L2.23587 4.44314L8.19934 4.29068L9.89705 14.854L3.72943 9.90995ZM28.099 43.4295H16.9028V38.7904H19.4278H25.574H28.099V43.4295ZM24.6069 36.8302H20.3949V28.3686C20.5561 28.4013 20.728 28.423 20.8999 28.4448C20.9107 28.4448 20.9107 28.4448 20.9214 28.4448C21.0826 28.4666 21.2545 28.4884 21.4157 28.4993C21.4264 28.4993 21.4479 28.4993 21.4586 28.4993C21.6198 28.5102 21.7917 28.521 21.9529 28.5319C21.9637 28.5319 21.9744 28.5319 21.9851 28.5319C22.1571 28.5428 22.329 28.5428 22.5009 28.5428C23.2208 28.5428 23.9192 28.4775 24.6069 28.3577V36.8302ZM25.2301 26.2015C24.5854 26.3975 23.9192 26.5173 23.2423 26.5717C23.2208 26.5717 23.2101 26.5717 23.1886 26.5717C23.1026 26.5826 23.0059 26.5826 22.92 26.5826C22.8877 26.5826 22.8662 26.5826 22.834 26.5826C22.7373 26.5826 22.6298 26.5826 22.5331 26.5935C22.5224 26.5935 22.5117 26.5935 22.5117 26.5935C22.5009 26.5935 22.4902 26.5935 22.4902 26.5935C22.3935 26.5935 22.286 26.5935 22.1893 26.5935C22.1463 26.5935 22.1141 26.5935 22.0819 26.5935C22.0066 26.5935 21.9422 26.5826 21.867 26.5826C21.824 26.5826 21.781 26.5826 21.7488 26.5717C21.6735 26.5608 21.5983 26.5608 21.5339 26.5499C21.5016 26.5499 21.4586 26.5391 21.4264 26.5391C21.3297 26.5282 21.233 26.5173 21.1363 26.5064C21.0826 26.4955 21.0288 26.4846 20.9751 26.4846C20.9321 26.4737 20.8892 26.4737 20.8462 26.4628C20.7817 26.4519 20.7172 26.441 20.6528 26.4302C20.6313 26.4302 20.599 26.4193 20.5776 26.4193C16.0539 25.4718 13.228 21.2792 12.2287 16.8796C12.2072 16.7707 12.1857 16.6727 12.1642 16.5638C12.1535 16.4984 12.132 16.4222 12.1213 16.3569C12.089 16.1826 12.0568 16.0084 12.0246 15.8341L11.9923 15.6381L9.77885 1.96021H35.223L35.0403 3.11456C35.0403 3.12545 35.0403 3.13634 35.0403 3.13634L33.1277 15.0718L33.0095 15.8015C32.2896 20.3208 29.6463 24.862 25.2301 26.2015ZM41.2831 9.90995L35.1263 14.854L36.824 4.29068L42.7874 4.44314L41.2831 9.90995Z" fill="#1F95EE"/>
</svg>
