<svg width="128" height="43" viewBox="0 0 128 43" fill="none" xmlns="http://www.w3.org/2000/svg">
<path d="M127.921 10.1459C129.664 20.1648 102.461 33.2847 67.1536 39.4494C31.8516 45.6141 1.81997 42.4866 0.0790858 32.4624C-1.6618 22.4434 25.5495 9.3262 60.8515 3.16416C96.156 -3.00584 126.182 0.124257 127.921 10.1459Z" fill="#034EA2"/>
<path d="M94.6926 25.0154L94.5127 14.5989H97.788V27.7289H93.0788L89.8088 16.9543H89.7373L89.9199 27.7289H86.6631V14.5989H91.5787L94.6212 25.0154H94.6926Z" fill="white"/>
<path d="M35.1365 15.8292L33.3243 27.8664H29.75L32.2025 14.5984H38.0891L40.5337 27.8664H36.9726L35.2106 15.8292H35.1365Z" fill="white"/>
<path d="M50.5691 24.7417L52.2041 14.5984H57.6012L57.8869 27.8664H54.5799L54.4926 15.9379H54.4238L52.212 27.8664H48.8547L46.6403 15.9379H46.5689L46.4869 27.8664H43.1719L43.4655 14.5984H48.8653L50.4977 24.7417H50.5691Z" fill="white"/>
<path d="M24.1776 24.1245C24.3072 24.4455 24.2675 24.8593 24.2067 25.1086C24.0956 25.549 23.7966 25.9999 22.9183 25.9999C22.0875 25.9999 21.5848 25.5224 21.5848 24.7956V23.5118H18.0344L18.0317 24.5383C18.0317 27.4959 20.3546 28.3898 22.8442 28.3898C25.2385 28.3898 27.2095 27.5702 27.5217 25.358C27.6831 24.2121 27.5614 23.4614 27.5085 23.1776C26.9502 20.4004 21.9261 19.5701 21.5531 18.0184C21.4896 17.7531 21.5081 17.4693 21.5399 17.3181C21.6325 16.8964 21.9208 16.4295 22.7489 16.4295C23.5215 16.4295 23.9792 16.9096 23.9792 17.6338C23.9792 17.8778 23.9792 18.4534 23.9792 18.4534H27.2783V17.5224C27.2783 14.6311 24.6908 14.1802 22.8177 14.1802C20.4631 14.1802 18.5397 14.96 18.1878 17.1192C18.0926 17.716 18.0794 18.2465 18.2169 18.9123C18.7963 21.6205 23.495 22.4057 24.1776 24.1245Z" fill="white"/>
<path d="M67.2088 24.1004C67.3384 24.4187 67.2961 24.8218 67.2379 25.0712C67.1294 25.5115 66.8331 25.9545 65.96 25.9545C65.1425 25.9545 64.6425 25.477 64.6425 24.7661L64.6398 23.4929H61.1264L61.1211 24.5062C61.1211 27.4346 63.4228 28.3179 65.8859 28.3179C68.2538 28.3179 70.2063 27.5089 70.5158 25.3179C70.6772 24.1799 70.5635 23.4399 70.5053 23.1614C69.9497 20.4107 64.9785 19.5884 64.6081 18.0499C64.5446 17.7847 64.5631 17.5061 64.5949 17.3629C64.6901 16.9358 64.9732 16.4823 65.7933 16.4823C66.5606 16.4823 67.0077 16.9491 67.0077 17.6706C67.0077 17.912 67.0077 18.4823 67.0077 18.4823H70.283V17.5592C70.283 14.6997 67.7167 14.2515 65.8595 14.2515C63.5313 14.2515 61.6238 15.0207 61.2798 17.1666C61.1846 17.7555 61.174 18.2754 61.3116 18.9385C61.8804 21.6202 66.5341 22.4001 67.2088 24.1004Z" fill="white"/>
<path d="M78.3234 25.8829C79.2414 25.8829 79.5272 25.2463 79.5907 24.9201C79.6171 24.7768 79.6251 24.5859 79.6224 24.4134V14.5938H82.9692V24.1111C82.9771 24.3551 82.9533 24.8564 82.9401 24.9811C82.7046 27.4586 80.7521 28.2623 78.3208 28.2623C75.8868 28.2623 73.9316 27.4586 73.6988 24.9811C73.6882 24.8564 73.6644 24.3524 73.6697 24.1111V14.5938H77.0138V24.4108C77.0138 24.5832 77.0191 24.7768 77.0455 24.9174C77.1196 25.2437 77.3974 25.8829 78.3234 25.8829Z" fill="white"/>
<path d="M105.934 25.7426C106.892 25.7426 107.228 25.1352 107.289 24.7824C107.313 24.6312 107.32 24.4455 107.318 24.2784V22.3526H105.961V20.4163H110.654V23.9787C110.651 24.228 110.646 24.411 110.606 24.854C110.387 27.2678 108.297 28.1299 105.953 28.1299C103.603 28.1299 101.519 27.2678 101.294 24.854C101.257 24.411 101.251 24.228 101.246 23.9787L101.249 18.3924C101.249 18.1563 101.278 17.7399 101.304 17.5171C101.598 15.0369 103.603 14.2385 105.953 14.2385C108.299 14.2385 110.355 15.0316 110.598 17.5171C110.641 17.9388 110.628 18.3924 110.628 18.3924V18.8354H107.291V18.0927C107.294 18.0953 107.286 17.777 107.249 17.5887C107.193 17.2943 106.94 16.6205 105.929 16.6205C104.963 16.6205 104.683 17.2571 104.611 17.5887C104.572 17.7638 104.556 17.9998 104.556 18.2147V24.2837C104.553 24.4508 104.564 24.6365 104.59 24.7877C104.643 25.1352 104.976 25.7426 105.934 25.7426Z" fill="white"/>
</svg>
