<svg width="69" height="65" viewBox="0 0 69 65" fill="none" xmlns="http://www.w3.org/2000/svg">
<path fill-rule="evenodd" clip-rule="evenodd" d="M46.7086 0.203841C47.6786 -0.271165 48.8505 0.10973 49.3558 1.06425L52.4983 7.00003H64C65.1046 7.00003 66 7.89546 66 9.00003V16.3637V25.206C67.7993 26.4375 68.9921 28.4955 68.9921 30.8279V40.1179C69.1141 42.564 67.8806 44.6491 66 45.8638V56.5568C66 61.1765 62.2235 65 57.602 65H8.39803C3.77654 65 0 61.1765 0 56.5568V15.4432C0 10.8235 3.77654 7.00003 8.39803 7.00003H32.8307L46.7086 0.203841ZM28.0698 14L34.5702 10.7937C34.8259 10.6676 35.0445 10.4926 35.2188 10.2844L46.7274 4.64853L49.2452 9.40436C49.2817 9.58111 49.3424 9.75426 49.4275 9.91879L51.5382 14H28.0698ZM24.6626 11H8.39803C6.01215 11 4 13.0061 4 15.4432V56.5568C4 58.994 6.01215 61 8.39803 61H57.602C59.9878 61 62 58.994 62 56.5568V47.358H55.6216C55.3489 47.358 55.089 47.3034 54.8521 47.2046H49.3759C48.4337 47.2046 47.5363 47.0072 46.7217 46.652C43.9974 45.7491 42 43.1905 42 40.1722V30.8279C42 27.0549 45.1212 24 48.8819 24H62V16.3637V11H54.6159L56.7676 15.0642C56.9413 15.3923 57.0173 15.7558 56.9967 16.1145C57.0522 16.5564 56.9593 17.0115 56.7207 17.4035C56.3578 17.9997 55.7103 18.3637 55.0123 18.3637H18.7568C17.8272 18.3637 17.0201 17.7232 16.809 16.8179C16.6623 16.1887 16.8303 15.5469 17.2263 15.0759C17.4184 14.7071 17.7256 14.3972 18.1204 14.2038L24.6626 11ZM48.1648 42.9095C48.394 42.9685 48.6343 43 48.8819 43H62.1102C63.9329 43 65.0767 41.6546 64.9956 40.2909C64.9932 40.2514 64.9921 40.2118 64.9921 40.1722V30.8279C64.9921 29.8737 64.4857 29.0044 63.7152 28.4887H62.172H55.6216H49.3759C47.904 28.4887 46.6536 29.7277 46.6536 31.2443V40.4489C46.6536 41.5211 47.2785 42.4545 48.1648 42.9095Z" fill="black"/>
</svg>
